<?xml version="1.0" encoding="UTF-8" standalone="no"?>
<!DOCTYPE svg PUBLIC "-//W3C//DTD SVG 1.1//EN"
 "http://www.w3.org/Graphics/SVG/1.1/DTD/svg11.dtd">
<!-- Generated by graphviz version 2.40.1 (20161225.0304)
 -->
<!-- Title: causal model Pages: 1 -->
<svg width="425pt" height="311pt"
 viewBox="0.00 0.00 425.30 311.00" xmlns="http://www.w3.org/2000/svg" xmlns:xlink="http://www.w3.org/1999/xlink">
<g id="graph0" class="graph" transform="scale(1 1) rotate(0) translate(4 307)">
<title>causal model</title>
<polygon fill="#ffffff" stroke="transparent" points="-4,4 -4,-307 421.2976,-307 421.2976,4 -4,4"/>
<!-- H -->
<g id="node1" class="node">
<title>H</title>
<polygon fill="none" stroke="#000000" points="120,-303 66,-303 66,-267 120,-267 120,-303"/>
<text text-anchor="middle" x="93" y="-281.3" font-family="Times,serif" font-size="14.00" fill="#000000">Hoose</text>
</g>
<!-- I -->
<g id="node2" class="node">
<title>I</title>
<ellipse fill="none" stroke="#000000" cx="93" cy="-212" rx="34.394" ry="18"/>
<text text-anchor="middle" x="93" y="-208.3" font-family="Times,serif" font-size="14.00" fill="#000000">Inflow</text>
</g>
<!-- H&#45;&gt;I -->
<g id="edge1" class="edge">
<title>H&#45;&gt;I</title>
<path fill="none" stroke="#000000" d="M93,-266.9551C93,-255.7241 93,-241.3298 93,-230.0904"/>
</g>
<!-- Id -->
<g id="node3" class="node">
<title>Id</title>
<ellipse fill="none" stroke="#000000" cx="27" cy="-139" rx="27" ry="18"/>
<text text-anchor="middle" x="27" y="-135.3" font-family="Times,serif" font-size="14.00" fill="#000000">∂</text>
</g>
<!-- I&#45;&gt;Id -->
<g id="edge2" class="edge">
<title>I&#45;&gt;Id</title>
<path fill="none" stroke="#000000" d="M78.0236,-195.4352C66.918,-183.1517 51.884,-166.5232 41.0146,-154.501"/>
</g>
<!-- Im -->
<g id="node5" class="node">
<title>Im</title>
<ellipse fill="none" stroke="#000000" cx="99" cy="-139" rx="27.0966" ry="18"/>
<text text-anchor="middle" x="99" y="-135.3" font-family="Times,serif" font-size="14.00" fill="#000000">Mag</text>
</g>
<!-- I&#45;&gt;Im -->
<g id="edge3" class="edge">
<title>I&#45;&gt;Im</title>
<path fill="none" stroke="#000000" d="M94.4831,-193.9551C95.4062,-182.7241 96.5893,-168.3298 97.5131,-157.0904"/>
</g>
<!-- V -->
<g id="node8" class="node">
<title>V</title>
<ellipse fill="none" stroke="#000000" cx="203" cy="-212" rx="40.0939" ry="18"/>
<text text-anchor="middle" x="203" y="-208.3" font-family="Times,serif" font-size="14.00" fill="#000000">Volume</text>
</g>
<!-- I&#45;&gt;V -->
<g id="edge16" class="edge">
<title>I&#45;&gt;V</title>
<path fill="none" stroke="#000000" d="M127.5029,-212C135.3866,-212 143.926,-212 152.3297,-212"/>
<polygon fill="#000000" stroke="#000000" points="152.46,-215.5001 162.4599,-212 152.4599,-208.5001 152.46,-215.5001"/>
<text text-anchor="middle" x="145.0753" y="-218.8" font-family="Times,serif" font-size="14.00" fill="#000000">I+</text>
</g>
<!-- Idv -->
<g id="node4" class="node">
<title>Idv</title>
<polygon fill="none" stroke="#000000" points="0,-.5 0,-69.5 54,-69.5 54,-.5 0,-.5"/>
<text text-anchor="middle" x="27" y="-54.3" font-family="Times,serif" font-size="14.00" fill="#000000">+</text>
<polyline fill="none" stroke="#000000" points="0,-46.5 54,-46.5 "/>
<text text-anchor="middle" x="27" y="-31.3" font-family="Times,serif" font-size="14.00" fill="#000000">0</text>
<polyline fill="none" stroke="#000000" points="0,-23.5 54,-23.5 "/>
<text text-anchor="middle" x="27" y="-8.3" font-family="Times,serif" font-size="14.00" fill="#000000">&#45;</text>
</g>
<!-- Id&#45;&gt;Idv -->
<g id="edge4" class="edge">
<title>Id&#45;&gt;Idv</title>
<path fill="none" stroke="#000000" d="M27,-120.8846C27,-106.801 27,-86.8438 27,-69.7118"/>
</g>
<!-- Imv -->
<g id="node6" class="node">
<title>Imv</title>
<polygon fill="none" stroke="#000000" points="72,-12 72,-58 126,-58 126,-12 72,-12"/>
<text text-anchor="middle" x="99" y="-42.8" font-family="Times,serif" font-size="14.00" fill="#000000">0</text>
<polyline fill="none" stroke="#000000" points="72,-35 126,-35 "/>
<text text-anchor="middle" x="99" y="-19.8" font-family="Times,serif" font-size="14.00" fill="#000000">+</text>
</g>
<!-- Im&#45;&gt;Imv -->
<g id="edge5" class="edge">
<title>Im&#45;&gt;Imv</title>
<path fill="none" stroke="#000000" d="M99,-120.8846C99,-103.4256 99,-76.9402 99,-58.0003"/>
</g>
<!-- C -->
<g id="node7" class="node">
<title>C</title>
<polygon fill="none" stroke="#000000" points="239,-303 167,-303 167,-267 239,-267 239,-303"/>
<text text-anchor="middle" x="203" y="-281.3" font-family="Times,serif" font-size="14.00" fill="#000000">Container</text>
</g>
<!-- C&#45;&gt;V -->
<g id="edge6" class="edge">
<title>C&#45;&gt;V</title>
<path fill="none" stroke="#000000" d="M203,-266.9551C203,-255.7241 203,-241.3298 203,-230.0904"/>
</g>
<!-- Vd -->
<g id="node9" class="node">
<title>Vd</title>
<ellipse fill="none" stroke="#000000" cx="172" cy="-139" rx="27" ry="18"/>
<text text-anchor="middle" x="172" y="-135.3" font-family="Times,serif" font-size="14.00" fill="#000000">∂</text>
</g>
<!-- V&#45;&gt;Vd -->
<g id="edge7" class="edge">
<title>V&#45;&gt;Vd</title>
<path fill="none" stroke="#000000" d="M195.3371,-193.9551C190.4602,-182.4708 184.1787,-167.6788 179.3613,-156.3347"/>
</g>
<!-- Vm -->
<g id="node11" class="node">
<title>Vm</title>
<ellipse fill="none" stroke="#000000" cx="244" cy="-139" rx="27.0966" ry="18"/>
<text text-anchor="middle" x="244" y="-135.3" font-family="Times,serif" font-size="14.00" fill="#000000">Mag</text>
</g>
<!-- V&#45;&gt;Vm -->
<g id="edge8" class="edge">
<title>V&#45;&gt;Vm</title>
<path fill="none" stroke="#000000" d="M212.925,-194.3287C219.466,-182.6825 227.985,-167.5145 234.4488,-156.0059"/>
</g>
<!-- O -->
<g id="node14" class="node">
<title>O</title>
<ellipse fill="none" stroke="#000000" cx="319" cy="-212" rx="40.0939" ry="18"/>
<text text-anchor="middle" x="319" y="-208.3" font-family="Times,serif" font-size="14.00" fill="#000000">Outflow</text>
</g>
<!-- V&#45;&gt;O -->
<g id="edge18" class="edge">
<title>V&#45;&gt;O</title>
<path fill="none" stroke="#000000" d="M243.5712,-212C251.6532,-212 260.233,-212 268.5982,-212"/>
<polygon fill="#000000" stroke="#000000" points="268.6477,-215.5001 278.6476,-212 268.6476,-208.5001 268.6477,-215.5001"/>
<text text-anchor="middle" x="261" y="-218.8" font-family="Times,serif" font-size="14.00" fill="#000000">P+</text>
</g>
<!-- Vdv -->
<g id="node10" class="node">
<title>Vdv</title>
<polygon fill="none" stroke="#000000" points="145,-.5 145,-69.5 199,-69.5 199,-.5 145,-.5"/>
<text text-anchor="middle" x="172" y="-54.3" font-family="Times,serif" font-size="14.00" fill="#000000">+</text>
<polyline fill="none" stroke="#000000" points="145,-46.5 199,-46.5 "/>
<text text-anchor="middle" x="172" y="-31.3" font-family="Times,serif" font-size="14.00" fill="#000000">0</text>
<polyline fill="none" stroke="#000000" points="145,-23.5 199,-23.5 "/>
<text text-anchor="middle" x="172" y="-8.3" font-family="Times,serif" font-size="14.00" fill="#000000">&#45;</text>
</g>
<!-- Vd&#45;&gt;Vdv -->
<g id="edge9" class="edge">
<title>Vd&#45;&gt;Vdv</title>
<path fill="none" stroke="#000000" d="M172,-120.8846C172,-106.801 172,-86.8438 172,-69.7118"/>
</g>
<!-- Vmv -->
<g id="node12" class="node">
<title>Vmv</title>
<polygon fill="none" stroke="#000000" points="217,-.5 217,-69.5 271,-69.5 271,-.5 217,-.5"/>
<text text-anchor="middle" x="244" y="-54.3" font-family="Times,serif" font-size="14.00" fill="#000000">0</text>
<polyline fill="none" stroke="#000000" points="217,-46.5 271,-46.5 "/>
<text text-anchor="middle" x="244" y="-31.3" font-family="Times,serif" font-size="14.00" fill="#000000">+</text>
<polyline fill="none" stroke="#000000" points="217,-23.5 271,-23.5 "/>
<text text-anchor="middle" x="244" y="-8.3" font-family="Times,serif" font-size="14.00" fill="#000000">max</text>
</g>
<!-- Vm&#45;&gt;Vmv -->
<g id="edge10" class="edge">
<title>Vm&#45;&gt;Vmv</title>
<path fill="none" stroke="#000000" d="M244,-120.8846C244,-106.801 244,-86.8438 244,-69.7118"/>
</g>
<!-- Omv -->
<g id="node18" class="node">
<title>Omv</title>
<polygon fill="none" stroke="#000000" points="361,-.5 361,-69.5 415,-69.5 415,-.5 361,-.5"/>
<text text-anchor="middle" x="388" y="-54.3" font-family="Times,serif" font-size="14.00" fill="#000000">0</text>
<polyline fill="none" stroke="#000000" points="361,-46.5 415,-46.5 "/>
<text text-anchor="middle" x="388" y="-31.3" font-family="Times,serif" font-size="14.00" fill="#000000">+</text>
<polyline fill="none" stroke="#000000" points="361,-23.5 415,-23.5 "/>
<text text-anchor="middle" x="388" y="-8.3" font-family="Times,serif" font-size="14.00" fill="#000000">max</text>
</g>
<!-- Vmv&#45;&gt;Omv -->
<g id="edge19" class="edge">
<title>Vmv:f0&#45;&gt;Omv:f0</title>
<path fill="none" stroke="#000000" d="M271,-58C279.7461,-58 281.5341,-88.4443 289,-93 298.0837,-98.543 319.532,-95.2865 352,-70 353.3149,-68.9759 354.1182,-67.7139 354.6877,-66.3969"/>
<polygon fill="#000000" stroke="#000000" points="357.7887,-68.0965 361,-58 352.1934,-63.8902 357.7887,-68.0965"/>
<text text-anchor="middle" x="293" y="-91.8" font-family="Times,serif" font-size="14.00" fill="#000000">=</text>
</g>
<!-- Vmv&#45;&gt;Omv -->
<g id="edge20" class="edge">
<title>Vmv:f2&#45;&gt;Omv:f2</title>
<path fill="none" stroke="#000000" d="M271,-12C284.0431,-12 276.6032,-57.4069 280,-70 282.8587,-80.5982 279.9335,-86.8119 289,-93 298.8562,-99.7272 325.2888,-104.1111 352,-70 357.9055,-62.4585 352.9568,-34.7138 355.0769,-20.5065"/>
<polygon fill="#000000" stroke="#000000" points="358.158,-22.2066 361,-12 352.4134,-18.2066 358.158,-22.2066"/>
<text text-anchor="middle" x="293" y="-91.8" font-family="Times,serif" font-size="14.00" fill="#000000">=</text>
</g>
<!-- D -->
<g id="node13" class="node">
<title>D</title>
<polygon fill="none" stroke="#000000" points="346,-303 292,-303 292,-267 346,-267 346,-303"/>
<text text-anchor="middle" x="319" y="-281.3" font-family="Times,serif" font-size="14.00" fill="#000000">Drain</text>
</g>
<!-- D&#45;&gt;O -->
<g id="edge11" class="edge">
<title>D&#45;&gt;O</title>
<path fill="none" stroke="#000000" d="M319,-266.9551C319,-255.7241 319,-241.3298 319,-230.0904"/>
</g>
<!-- O&#45;&gt;V -->
<g id="edge17" class="edge">
<title>O&#45;&gt;V</title>
<path fill="none" stroke="#000000" d="M291.7119,-198.6786C280.7424,-194.7833 267.8965,-192.035 256,-194 251.7395,-194.7037 247.3611,-195.7055 243.0342,-196.8807"/>
<polygon fill="#000000" stroke="#000000" points="241.6714,-193.6361 233.111,-199.8787 243.696,-200.337 241.6714,-193.6361"/>
<text text-anchor="middle" x="261" y="-197.8" font-family="Times,serif" font-size="14.00" fill="#000000">I&#45;</text>
</g>
<!-- Od -->
<g id="node15" class="node">
<title>Od</title>
<ellipse fill="none" stroke="#000000" cx="318" cy="-139" rx="27" ry="18"/>
<text text-anchor="middle" x="318" y="-135.3" font-family="Times,serif" font-size="14.00" fill="#000000">∂</text>
</g>
<!-- O&#45;&gt;Od -->
<g id="edge12" class="edge">
<title>O&#45;&gt;Od</title>
<path fill="none" stroke="#000000" d="M318.7528,-193.9551C318.599,-182.7241 318.4018,-168.3298 318.2478,-157.0904"/>
</g>
<!-- Om -->
<g id="node17" class="node">
<title>Om</title>
<ellipse fill="none" stroke="#000000" cx="390" cy="-139" rx="27.0966" ry="18"/>
<text text-anchor="middle" x="390" y="-135.3" font-family="Times,serif" font-size="14.00" fill="#000000">Mag</text>
</g>
<!-- O&#45;&gt;Om -->
<g id="edge13" class="edge">
<title>O&#45;&gt;Om</title>
<path fill="none" stroke="#000000" d="M335.111,-195.4352C347.0579,-183.1517 363.2309,-166.5232 374.9237,-154.501"/>
</g>
<!-- Odv -->
<g id="node16" class="node">
<title>Odv</title>
<polygon fill="none" stroke="#000000" points="289,-.5 289,-69.5 343,-69.5 343,-.5 289,-.5"/>
<text text-anchor="middle" x="316" y="-54.3" font-family="Times,serif" font-size="14.00" fill="#000000">+</text>
<polyline fill="none" stroke="#000000" points="289,-46.5 343,-46.5 "/>
<text text-anchor="middle" x="316" y="-31.3" font-family="Times,serif" font-size="14.00" fill="#000000">0</text>
<polyline fill="none" stroke="#000000" points="289,-23.5 343,-23.5 "/>
<text text-anchor="middle" x="316" y="-8.3" font-family="Times,serif" font-size="14.00" fill="#000000">&#45;</text>
</g>
<!-- Od&#45;&gt;Odv -->
<g id="edge14" class="edge">
<title>Od&#45;&gt;Odv</title>
<path fill="none" stroke="#000000" d="M317.6516,-120.8846C317.3808,-106.801 316.997,-86.8438 316.6675,-69.7118"/>
</g>
<!-- Om&#45;&gt;Omv -->
<g id="edge15" class="edge">
<title>Om&#45;&gt;Omv</title>
<path fill="none" stroke="#000000" d="M389.6516,-120.8846C389.3808,-106.801 388.997,-86.8438 388.6675,-69.7118"/>
</g>
</g>
</svg>
